PathFileType	4	(X/Y/Z)	s01c0301.trc
DataRate	CameraRate	NumFrames	NumMarkers	Units	OrigDataRate	OrigDataStartFrame	OrigNumFrames
200	200	6	48	mm	200	0	2000
Frame#	Time	racr			lacr			c7			jug			rlel			rdr			llel			ldr			s2			lic			ric			lasi			rasi			rpsi			lpsi			rgt			lgt			rth1			rth2			rth3			rth4			rlfc			rsh1			rsh2			rsh3			rsh4			rlmal			rmmal			rcal			rtoe			rmt5			lth1			lth2			lth4			lth3			llfc			lsh1			lsh2			lsh3			lsh4			llmal			lmmal			lcal			ltoe			lmt5			SBIKE			LBIKE			RBIKE			
		X1	Y1	Z1	X2	Y2	Z2	X3	Y3	Z3	X4	Y4	Z4	X5	Y5	Z5	X6	Y6	Z6	X7	Y7	Z7	X8	Y8	Z8	X9	Y9	Z9	X10	Y10	Z10	X11	Y11	Z11	X12	Y12	Z12	X13	Y13	Z13	X14	Y14	Z14	X15	Y15	Z15	X16	Y16	Z16	X17	Y17	Z17	X18	Y18	Z18	X19	Y19	Z19	X20	Y20	Z20	X21	Y21	Z21	X22	Y22	Z22	X23	Y23	Z23	X24	Y24	Z24	X25	Y25	Z25	X26	Y26	Z26	X27	Y27	Z27	X28	Y28	Z28	X29	Y29	Z29	X30	Y30	Z30	X31	Y31	Z31	X32	Y32	Z32	X33	Y33	Z33	X34	Y34	Z34	X35	Y35	Z35	X36	Y36	Z36	X37	Y37	Z37	X38	Y38	Z38	X39	Y39	Z39	X40	Y40	Z40	X41	Y41	Z41	X42	Y42	Z42	X43	Y43	Z43	X44	Y44	Z44	X45	Y45	Z45	X46	Y46	Z46	X47	Y47	Z47	X48	Y48	Z48	
0	0.0000	502.352799	1344.459301	-137.674304	503.790000	1344.509321	-417.755517	449.091379	1383.027548	-268.530086	463.951030	1222.465547	-272.284787	588.650965	1072.089260	-71.175840	726.479823	846.289482	-107.636576	586.940476	1071.262883	-476.770927	0.000000	0.000000	-0.000000	-70.411300	1153.108427	-252.865079	104.117020	1152.844579	-420.107043	100.100089	1123.097834	-105.751946	91.139975	1097.047580	-410.005426	111.683222	1073.856870	-131.666518	-30.421508	1180.139500	-200.574812	-38.242975	1191.501674	-306.035665	22.049615	1014.492801	-76.423461	23.253057	1042.536340	-469.606938	93.946955	894.956090	-59.136958	147.253194	831.521722	-64.483664	200.731249	759.334161	-77.538285	190.857883	865.158030	-76.234958	241.056473	661.511708	-99.691400	160.017694	574.776967	-68.764465	114.130769	503.558722	-72.628552	57.852234	434.977287	-86.005159	151.911746	477.347335	-111.419142	-19.802710	332.772105	-105.568945	29.017994	341.705025	-183.430540	-71.725915	306.238516	-160.528571	190.980780	244.057223	-138.466924	81.437506	232.701925	-72.225456	118.914297	959.753783	-471.137859	206.813523	944.817007	-475.917636	217.594252	998.378982	-467.607002	288.855941	922.497015	-460.258283	387.206927	858.253503	-435.507022	319.360816	766.024363	-456.974713	291.898140	683.944557	-449.848685	263.094118	604.302931	-432.296224	347.101475	668.221041	-426.420936	227.728829	481.090059	-412.353037	258.267547	494.308193	-329.729456	182.646103	432.032098	-373.549421	457.745679	464.746842	-382.033256	358.921968	424.529562	-448.620152	-229.019527	890.829104	-253.457149	-21.125904	80.669073	-454.369612	-21.418758	80.522806	-53.883258	
1	0.0050	502.404910	1344.451992	-137.750371	503.824002	1344.532028	-417.781239	449.090997	1383.026851	-268.526348	463.988269	1222.478067	-272.316371	588.678536	1072.114046	-71.201158	726.485140	846.290723	-107.660314	586.954742	1071.254498	-476.792811	0.000000	0.000000	-0.000000	-70.399397	1153.110249	-252.878998	104.190477	1152.825977	-420.099143	100.116126	1123.089882	-105.766658	91.133540	1097.025964	-410.006435	111.699850	1073.838256	-131.685827	-30.420881	1180.137152	-200.577825	-38.206529	1191.495162	-306.079080	22.087878	1014.469161	-76.438439	23.267853	1042.527564	-469.605538	93.989073	894.971772	-59.176294	147.276831	831.535100	-64.501949	200.760174	759.344249	-77.549416	190.886110	865.164913	-76.262345	241.093924	661.534490	-99.696161	160.054705	574.787631	-68.772674	114.137119	503.571223	-72.629737	57.850274	435.017904	-85.979425	151.929145	477.367213	-111.447041	-19.790362	332.793980	-105.582490	28.954985	341.695054	-183.449159	-71.713731	306.272003	-160.530859	190.951182	244.092362	-138.442798	81.428063	232.732855	-72.220641	118.925416	959.768652	-471.153335	206.821516	944.844866	-475.960125	217.426631	998.213195	-467.466163	288.846152	922.509637	-460.278991	387.214005	858.265039	-435.532824	319.396957	766.026337	-456.959593	291.949731	683.967945	-449.841010	263.141047	604.312558	-432.285028	347.157223	668.243403	-426.424967	227.783054	481.095531	-412.355260	258.294389	494.305866	-329.730316	182.687638	432.077450	-373.542634	457.778203	464.703394	-382.028990	358.976073	424.510516	-448.620523	-229.009703	890.829697	-253.478386	-21.119069	80.663983	-454.356760	-21.401425	80.497722	-53.883042	
2	0.0100	502.448753	1344.461165	-137.787346	503.860571	1344.548945	-417.773748	449.101221	1383.037985	-268.562528	464.046128	1222.485965	-272.359029	588.704487	1072.124789	-71.239924	726.477187	846.292415	-107.649149	586.979334	1071.246513	-476.811154	0.000000	0.000000	-0.000000	-70.387425	1153.104728	-252.881952	104.145094	1152.782964	-420.051965	100.121906	1123.088471	-105.773936	91.132054	1097.009082	-409.984450	111.708019	1073.822866	-131.673837	-30.408319	1180.133480	-200.578900	-38.247187	1191.505750	-306.056558	22.086535	1014.465021	-76.437388	23.278632	1042.526947	-469.593298	94.011143	894.977027	-59.188598	147.296147	831.549618	-64.496309	200.803664	759.351183	-77.551968	190.905716	865.183757	-76.277008	241.127283	661.551238	-99.700134	160.089933	574.815583	-68.779446	114.148912	503.595923	-72.641443	57.876191	435.030915	-86.007502	151.942614	477.398809	-111.449178	-19.800615	332.848052	-105.596024	29.012334	341.760830	-183.467383	-71.726460	306.336128	-160.530045	190.949628	244.099741	-138.443461	81.419082	232.763931	-72.227681	118.925379	959.769395	-471.152181	206.812177	944.853103	-475.966911	217.424495	998.234283	-467.488815	288.862409	922.535976	-460.314338	387.248584	858.292754	-435.545235	319.437241	766.052423	-456.937612	291.979655	683.989203	-449.839133	263.201551	604.338913	-432.286354	347.208630	668.259485	-426.421798	227.835638	481.128291	-412.363353	258.380303	494.327643	-329.721889	182.718294	432.127738	-373.523768	457.830895	464.640648	-382.051906	359.001443	424.492592	-448.621541	-229.008262	890.826130	-253.468309	-21.118183	80.666729	-454.369045	-21.402837	80.513152	-53.884387	
3	0.0150	502.458959	1344.474417	-137.831948	505.051279	1344.119567	-418.453135	449.018428	1383.181021	-268.488077	464.053273	1222.515636	-272.371221	588.745975	1072.139629	-71.310242	726.545554	846.381891	-107.578084	586.981307	1071.240887	-476.825183	0.000000	0.000000	-0.000000	-70.394449	1153.107622	-252.872831	104.490188	1152.808354	-420.427631	100.126720	1123.069736	-105.780176	91.128549	1097.005824	-409.980411	111.972023	1073.844090	-131.675566	-30.954355	1180.885543	-199.945639	-38.986340	1191.787680	-305.660606	22.107575	1014.449016	-76.438825	23.354193	1042.463152	-469.627108	93.741246	894.528964	-59.292574	147.337105	831.543508	-64.509935	200.994018	759.244578	-77.672562	190.967593	865.277962	-76.125132	241.155571	661.552118	-99.729739	160.205502	574.822589	-68.787265	114.169477	503.629723	-72.626688	57.884806	435.080820	-86.003294	152.904896	478.170914	-111.461034	-19.796480	332.880509	-105.548879	28.883790	341.774339	-183.533304	-72.130212	306.756566	-160.332803	190.811228	244.146941	-138.349150	81.405386	232.801141	-72.223502	118.929616	959.774906	-471.150274	208.078248	945.136738	-476.788771	219.935750	996.954669	-471.051618	288.862222	922.553241	-460.328203	387.261164	858.337368	-435.564959	319.470410	766.081371	-456.929341	292.234171	684.070466	-449.829964	263.272223	604.364382	-432.284490	347.261436	668.276424	-426.424833	228.628331	481.058536	-412.080826	258.502734	494.222006	-329.704122	182.445241	432.453843	-373.443481	458.193294	464.514553	-382.223136	359.388219	424.537120	-448.676316	-229.074336	890.797732	-253.664364	-21.121322	80.657401	-454.375211	-21.407098	80.485466	-53.881018	
4	0.0200	502.697843	1344.547893	-137.858957	507.535468	1344.948588	-418.435850	449.093868	1382.759237	-268.400623	464.125488	1222.498818	-272.407116	588.435592	1072.212514	-71.063198	726.598006	846.296955	-107.633669	587.108754	1071.225662	-476.795732	0.000000	0.000000	-0.000000	-70.207838	1152.911904	-252.864036	105.187018	1152.895216	-421.184351	100.090762	1123.008694	-105.806785	90.578833	1096.971595	-409.571197	112.008465	1073.843592	-131.663635	-30.928732	1180.821308	-199.974325	-39.585082	1192.015078	-305.338882	22.014859	1014.250464	-76.342241	23.127538	1042.591121	-469.804263	93.784264	894.528219	-59.339272	147.335431	831.494471	-64.506218	201.028499	759.146170	-77.506163	191.003812	865.283363	-76.121974	241.194998	661.563566	-99.803841	160.238407	574.833643	-68.909636	114.154334	503.656946	-72.743129	57.909381	435.111452	-86.042987	152.970604	478.201779	-111.495461	-19.785415	332.954095	-105.596646	28.878743	341.786805	-183.531685	-72.208497	306.771749	-160.321433	190.780189	244.187620	-138.371888	81.385757	232.832207	-72.285118	118.937683	959.784940	-471.147663	209.418498	945.807998	-476.627416	219.748902	998.122452	-470.313645	288.828750	922.514179	-460.295743	387.604645	858.421353	-435.506648	319.535550	766.162140	-456.901329	292.370643	684.079175	-449.780195	263.245818	604.267125	-432.235662	347.303125	668.290778	-426.320137	228.518920	481.136597	-412.171799	258.535872	494.288326	-329.726239	182.426262	432.428150	-373.430155	458.133740	464.365654	-382.181419	358.991008	425.300434	-449.504286	-229.174211	890.799916	-253.639856	-21.015701	80.281307	-454.441855	-21.482689	80.451778	-53.826446	
5	0.0250	502.756333	1344.581994	-137.854332	507.535184	1344.963572	-418.464985	449.063303	1382.722151	-268.372301	464.160161	1222.504453	-272.456761	588.511738	1072.207639	-71.140078	726.588496	846.273684	-107.680837	586.922350	1071.144804	-476.826650	0.000000	0.000000	-0.000000	-70.326375	1153.148205	-253.009382	106.196836	1153.037106	-422.280405	100.167240	1123.084726	-105.743855	90.894749	1096.895085	-409.594116	112.014582	1073.814813	-131.660504	-30.922177	1180.884288	-199.923388	-40.054095	1192.192268	-305.085837	22.194241	1014.600840	-76.584694	23.205709	1042.550285	-469.629764	93.799102	894.513881	-59.332165	147.431398	831.584586	-64.561671	201.097975	759.317850	-77.941363	191.023589	865.286970	-76.121341	241.261138	661.592642	-99.665318	160.306198	574.882002	-68.745676	114.200738	503.730689	-72.732069	57.903661	435.164009	-86.029439	152.994829	478.238125	-111.476035	-19.782314	332.980771	-105.605958	28.994720	341.868193	-183.467182	-72.177796	306.863425	-160.334186	190.772514	244.216954	-138.374389	81.401974	232.873929	-72.197196	118.949167	959.799131	-471.144398	209.412926	945.841287	-476.624808	219.850277	997.380609	-470.801635	288.814788	922.552903	-460.305776	387.638540	858.468766	-435.507845	319.616395	766.262869	-456.866681	292.393378	684.182768	-449.797874	263.382763	604.352300	-432.232442	347.356540	668.333726	-426.276939	228.608988	481.227619	-412.169818	258.605815	494.309739	-329.724139	182.509267	432.575234	-373.424835	458.611116	464.527485	-382.236821	361.775629	425.268807	-449.699682	-229.109992	890.769734	-253.656095	-22.339469	81.556032	-454.446185	-21.400854	80.417677	-54.007418	
